# xmcd CD database file
#
# Track frame offsets:
#	150
#	10893
#	29313
#	44586
#	58579
#	69926
#	83521
#	93929
#	110344
#	121459
#	135926
#	150314
#	163661
#	175288
#
# Disc length: 2517 seconds
#
# Revision: 1
# Processed by: cddbd v1.5.2PL0 Copyright (c) Steve Scherf et al.
# Submitted via: CDex 1.70beta2
#
DISCID=a409d30e
DTITLE=Chris Jones and the Night Drivers - Lost Souls and Free Spirits: The Rebel Collection Old and New
DYEAR=2012
DGENRE=Country
TTITLE0=Uphill Climb
TTITLE1=What You Do
TTITLE2=Final Farewell
TTITLE3=Waltz of Regret
TTITLE4=Nashville Blues
TTITLE5=The Man On the Side of the Road (with Tom T. Hall)
TTITLE6=Ribbon of Darkness
TTITLE7=A Hero In Harlan
TTITLE8=I'm Ready If You're Willin'
TTITLE9=Bridge To Portsmouth
TTITLE10=I'd Rather Love You
TTITLE11=Cloud of Dust
TTITLE12=Train That Never Slows Down
TTITLE13=Whispering Now
EXTD=YEAR: 2012
EXTT0=
EXTT1=
EXTT2=
EXTT3=
EXTT4=
EXTT5=
EXTT6=
EXTT7=
EXTT8=
EXTT9=
EXTT10=
EXTT11=
EXTT12=
EXTT13=
PLAYORDER=
